{"title":"Pacific Rim 2013 READNFO CAM XViD UNiQUE","uid":8691238,"size":1527427425,"categoryP":"video","categoryS":"movies","magnet":"?xt=urn:btih:cca0b868a22d5a328c56c832f15e3fc427de28f6&amp;dn=Pacific+Rim+2013+READNFO+CAM+XViD+UNiQUE&amp;tr=udp%3A%2F%2Ftracker.openbittorrent.com%3A80&amp;tr=udp%3A%2F%2Fopen.demonii.com%3A1337&amp;tr=udp%3A%2F%2Ftracker.coppersurfer.tk%3A6969&amp;tr=udp%3A%2F%2Fexodus.desync.com%3A6969","seeders":1,"leechers":0,"uploader":"xxxlavalxxx","files":-1,"time":1373846590,"description":" &lt;a href=&quot;\nhttp://www.imdb.com/title/tt1663662/&quot; rel=&quot;nofollow&quot; target=&quot;_NEW&quot;&gt;\nhttp://www.imdb.com/title/tt1663662/&lt;/a&gt;\n\n\n\nAs a war between humankind and monstrous sea creatures wages on, a former pilot and a trainee are paired up to drive a seemingly obsolete special weapon in a desperate effort to save the world from the apocalypse. \n\n\n\nDirector:\n Guillermo del Toro \n\nWriters:\n Travis Beacham (screenplay), Guillermo del Toro (screenplay)\n\nStars:\n Charlie Hunnam, Idris Elba, Rinko Kikuchi \n\nGenres:\n  Action |  Adventure |  Fantasy |  Sci-Fi \n\nCountry:\n USA \n\nLanguage:\n English | Japanese | Cantonese \n\n\nFormat                                   : AVI\n Format/Info                              : Audio Video Interleave\n File size                                : 1.41 GiB\n Duration                                 : 2h 2mn\n Overall bit rate                         : 1 652 Kbps\n Writing application                      : VirtualDubMod 1.5.10.2 (build 2540/release)\n Writing library                          : VirtualDubMod build 2540/release\n\n Video\n ID                                       : 0\n Format                                   : MPEG-4 Visual\n Format profile                           : Advanced Simple@L5\n Format settings, BVOP                    : 2\n Format settings, QPel                    : No\n Format settings, GMC                     : No warppoints\n Format settings, Matrix                  : Default (H.263)\n Muxing mode                              : Packed bitstream\n Codec ID                                 : XVID\n Codec ID/Hint                            : XviD\n Duration                                 : 2h 2mn\n Bit rate                                 : 1 513 Kbps\n Width                                    : 720 pixels\n Height                                   : 368 pixels\n Display aspect ratio                     : 1.957\n Frame rate                               : 29.383 fps\n Color space                              : YUV\n Chroma subsampling                       : 4:2:0\n Bit depth                                : 8 bits\n Scan type                                : Progressive\n Compression mode                         : Lossy\n Bits/(Pixel*Frame)                       : 0.194\n Stream size                              : 1.29 GiB (92%)\n Writing library                          : XviD 64\n\n Audio\n ID                                       : 1\n Format                                   : MPEG Audio\n Format version                           : Version 1\n Format profile                           : Layer 3\n Mode                                     : Joint stereo\n Mode extension                           : MS Stereo\n Codec ID                                 : 55\n Codec ID/Hint                            : MP3\n Duration                                 : 2h 2mn\n Bit rate mode                            : Constant\n Bit rate                                 : 128 Kbps\n Channel(s)                               : 2 channels\n Sampling rate                            : 48.0 KHz\n Compression mode                         : Lossy\n Stream size                              : 112 MiB (8%)\n Alignment                                : Split accross interleaves\n Interleave, duration                     : 34 ms (1.00 video frame)\n Interleave, preload duration             : 500 ms\n Writing library                          : LAME\n\n\n\n\n Source Used      Pacific Rim 2013 iTA MD TELESYNC x264-RAVERS / THC                 - Thanks\n\n &lt;a href=&quot;\nhttp://www.imdb.com/title/tt1663662&quot; rel=&quot;nofollow&quot; target=&quot;_NEW&quot;&gt;\nhttp://www.imdb.com/title/tt1663662&lt;/a&gt;\n\n\n As a war between humankind and monstrous sea creatures wages on, a former pilot and a trainee are paired up to drive a seemingly obsolete special weapon in a desperate effort to save the world from the apocalypse. \n\n\n Heres reasons for READNFO \n\n\n Basically its to let you know there are a couple of dark spots throughout and respect to THC on bringing the audio but for the moaners its real tinny and hollow BUT understandable.With line added it probably be a real nice release wink.gif\n\n\n Cropped ,resized ,sharpened,dropped hue ,changed rgb slightly and thats about it \n\n\n\n\n\n\nscreens\n\n\n    &lt;a href=&quot;\thttp://addpix.net/viewer.php?file=19203077432751919517.jpg&quot; rel=&quot;nofollow&quot; target=&quot;_NEW&quot;&gt;\thttp://addpix.net/viewer.php?file=19203077432751919517.jpg&lt;/a&gt;\n    &lt;a href=&quot;\thttp://addpix.net/viewer.php?file=82765448234288542284.jpg&quot; rel=&quot;nofollow&quot; target=&quot;_NEW&quot;&gt;\thttp://addpix.net/viewer.php?file=82765448234288542284.jpg&lt;/a&gt;\n    &lt;a href=&quot;\thttp://addpix.net/viewer.php?file=34485115777418661748.jpg&quot; rel=&quot;nofollow&quot; target=&quot;_NEW&quot;&gt;\thttp://addpix.net/viewer.php?file=34485115777418661748.jpg&lt;/a&gt;\n    &lt;a href=&quot;\thttp://addpix.net/viewer.php?file=78247836206318077673.jpg&quot; rel=&quot;nofollow&quot; target=&quot;_NEW&quot;&gt;\thttp://addpix.net/viewer.php?file=78247836206318077673.jpg&lt;/a&gt;\n    &lt;a href=&quot;\thttp://addpix.net/viewer.php?file=74191331912608632102.jpg&quot; rel=&quot;nofollow&quot; target=&quot;_NEW&quot;&gt;\thttp://addpix.net/viewer.php?file=74191331912608632102.jpg&lt;/a&gt;","torrent":{"xt":"urn:btih:cca0b868a22d5a328c56c832f15e3fc427de28f6","amp;dn":"Pacific+Rim+2013+READNFO+CAM+XViD+UNiQUE","amp;tr":["udp%3A%2F%2Ftracker.openbittorrent.com%3A80","udp%3A%2F%2Fopen.demonii.com%3A1337","udp%3A%2F%2Ftracker.coppersurfer.tk%3A6969","udp%3A%2F%2Fexodus.desync.com%3A6969"],"infoHash":"cca0b868a22d5a328c56c832f15e3fc427de28f6","infoHashBuffer":{"type":"Buffer","data":[204,160,184,104,162,45,90,50,140,86,200,50,241,94,63,196,39,222,40,246]},"announce":[],"urlList":[]}}